<svg width="42" height="43" viewBox="0 0 42 43" fill="none" xmlns="http://www.w3.org/2000/svg">
<g id="image 36 (traced)">
<g id="Black">
<path id="Vector" d="M35.3883 3.02628C35.0437 3.19854 34.4531 3.74815 34.4531 3.90401C34.4531 3.92862 34.6254 4.00245 34.8469 4.05167C35.5031 4.23214 36.3727 4.70792 37.1191 5.30675C37.5047 5.61846 37.8574 5.85636 37.8984 5.83175C37.9395 5.80714 38.0297 5.62667 38.1117 5.42159C38.3004 4.913 38.2266 4.24854 37.923 3.74815C37.4062 2.91964 36.2824 2.59971 35.3883 3.02628Z" fill="#2560A8"/>
<path id="Vector_2" d="M30.5656 10.4748L27.2188 16.1432L27.4402 16.3729C27.5551 16.4959 27.8176 16.7174 28.0145 16.8569C28.277 17.0455 28.3836 17.0866 28.441 17.0045C28.7445 16.6272 35.4301 5.27406 35.3973 5.21664C35.3398 5.1182 34.3309 4.80648 34.093 4.80648C33.9535 4.81469 33.3301 5.80726 30.5656 10.4748Z" fill="#2560A8"/>
<path id="Vector_3" d="M32.7366 11.541C30.8253 14.7402 29.2585 17.4227 29.2503 17.4965C29.2421 17.5949 29.4307 17.6934 29.9229 17.8738C30.3167 18.0215 30.6284 18.0871 30.6694 18.0461C30.8417 17.8656 37.3221 6.84062 37.3221 6.73398C37.3221 6.63555 36.5756 5.92187 36.3049 5.77422C36.2393 5.7332 35.1073 7.5625 32.7366 11.541Z" fill="#2560A8"/>
<path id="Vector_4" d="M5.66049 7.11147C4.21674 7.39038 3.00268 8.69468 2.7894 10.1794C2.69916 10.8111 2.66635 33.9275 2.75658 33.9275C2.7894 33.9275 3.04369 33.706 3.3308 33.4435C4.33979 32.4919 5.24213 32.2048 7.19448 32.2048H8.53158V19.613V7.02124L7.28471 7.02944C6.59565 7.03765 5.86557 7.07046 5.66049 7.11147Z" fill="#2560A8"/>
<path id="Vector_5" d="M9.43492 24.0427C9.43492 32.6724 9.43492 32.7791 9.27086 32.9431C9.115 33.099 9.00016 33.1072 7.52359 33.1072C5.78453 33.1072 5.25133 33.1892 4.59508 33.5748C2.51969 34.7888 2.12594 37.7091 3.80758 39.3908C4.28336 39.8583 5.08727 40.2849 5.73531 40.408C6.02242 40.4572 11.4857 40.49 21.2146 40.49H36.2591V27.8982V15.3064H34.799H33.3388L32.2806 17.1111L31.2142 18.9076L28.5728 20.7205C27.1209 21.713 25.8658 22.5251 25.7755 22.5251C25.6935 22.5251 25.5541 22.4513 25.472 22.3611C25.3244 22.197 25.3326 22.115 25.7509 19.2193C26.1365 16.5943 26.2103 16.1923 26.4236 15.774L26.6615 15.3064H18.0482H9.43492V24.0427ZM21.7396 20.8107C22.4615 21.1388 22.8388 21.6966 22.8388 22.4431C22.8388 22.9927 22.6091 23.4685 22.1908 23.8212C21.4853 24.3955 20.5912 24.3791 19.9185 23.772C19.0982 23.0255 19.0736 21.9099 19.8611 21.1552C20.3943 20.6548 21.0998 20.5236 21.7396 20.8107ZM12.224 20.8025C12.3142 20.8517 12.5439 21.0568 12.7408 21.2701L13.1017 21.6556L13.5529 21.2701C14.1681 20.7451 14.6029 20.7615 14.6029 21.3029C14.6029 21.4751 14.5045 21.6146 14.1927 21.8771C13.9713 22.0658 13.7826 22.2626 13.7826 22.3037C13.7826 22.3447 13.9466 22.5826 14.1517 22.8205C14.5537 23.2798 14.5947 23.4521 14.3814 23.69C14.1599 23.9443 13.9384 23.8623 13.4873 23.3701L13.0607 22.9107L12.5931 23.3291C12.0927 23.7884 11.9533 23.8294 11.7154 23.6162C11.4611 23.3865 11.5349 23.1404 11.9779 22.722C12.2076 22.5087 12.388 22.2955 12.388 22.2544C12.388 22.2052 12.224 21.9919 12.0189 21.7787C11.6005 21.3357 11.5431 21.0486 11.8302 20.8517C12.0517 20.6959 12.0271 20.6959 12.224 20.8025ZM32.3462 21.3849C32.5185 21.4341 32.8138 21.6064 32.9943 21.7705C34.0443 22.7138 33.7736 24.2314 32.4611 24.781C31.6572 25.1173 30.6728 24.7154 30.2709 23.8705C29.8033 22.9025 30.2791 21.7787 31.3127 21.4095C31.6982 21.2783 31.9443 21.2701 32.3462 21.3849ZM30.763 26.2166C30.9599 26.3232 31.7884 28.8334 31.7146 29.0712C31.6408 29.2927 31.3373 29.4158 31.1158 29.3091C30.9763 29.2517 30.8779 29.063 30.7466 28.6447C30.6482 28.3248 30.5416 28.0376 30.517 27.9966C30.4923 27.9638 30.3775 28.0951 30.2709 28.2837C29.5982 29.5224 28.4498 30.8513 27.408 31.6224C25.4392 33.0744 22.8634 33.9521 19.4017 34.3705C17.999 34.5427 17.5068 34.5509 17.3509 34.4197C17.1951 34.2884 17.1869 33.8947 17.3427 33.7716C17.4084 33.7142 17.9662 33.624 18.5896 33.5584C22.158 33.1892 24.5943 32.4673 26.44 31.2451C27.2275 30.7283 28.3595 29.6291 28.8599 28.899C29.2947 28.2591 29.7295 27.4552 29.672 27.3896C29.6474 27.3732 29.3193 27.447 28.9502 27.5701C28.2037 27.7998 27.9248 27.7916 27.8181 27.5044C27.6705 27.1107 27.8427 26.9876 29.1552 26.5529C30.5416 26.1017 30.5498 26.1017 30.763 26.2166ZM14.7013 26.9302L15.1689 27.3978L15.6201 26.9712C16.1123 26.5037 16.2435 26.4626 16.4896 26.7087C16.7439 26.963 16.6865 27.1271 16.2025 27.6111L15.7595 28.0458L16.1615 28.5216C16.6127 29.0384 16.6537 29.1697 16.4076 29.4158C16.1533 29.6701 15.9974 29.6126 15.5298 29.1205L15.1033 28.6529L14.7177 28.9728C14.0861 29.506 14.0615 29.5224 13.8728 29.424C13.4216 29.1779 13.4955 28.8334 14.1107 28.3412C14.2912 28.1935 14.4388 28.0376 14.4388 27.9966C14.4388 27.9474 14.2748 27.7341 14.0697 27.5209C13.6759 27.1025 13.6103 26.8564 13.84 26.6103C14.0533 26.3724 14.1927 26.4298 14.7013 26.9302ZM22.3795 27.3322L22.8224 27.7833L23.1916 27.4716C23.815 26.9466 23.8396 26.9302 24.0283 27.0287C24.2744 27.1681 24.3892 27.4142 24.2908 27.6029C24.2416 27.6849 24.0365 27.9064 23.8314 28.0869C23.6263 28.2673 23.4623 28.4478 23.4623 28.4888C23.4623 28.5298 23.6263 28.7185 23.8232 28.9154C24.0201 29.1123 24.2087 29.3419 24.2252 29.424C24.2744 29.6126 23.9955 29.99 23.8068 29.99C23.733 29.99 23.4623 29.7767 23.1998 29.5224L22.7322 29.0548L22.281 29.4814C21.7888 29.949 21.6576 29.99 21.4115 29.7439C21.1572 29.4896 21.2064 29.3337 21.6986 28.8416L22.1416 28.3904L21.7396 27.9146C21.2884 27.3814 21.2556 27.2748 21.4935 27.0369C21.7478 26.7826 21.8955 26.8318 22.3795 27.3322ZM14.3404 32.09C15.7841 32.6888 15.7841 34.756 14.3404 35.3548C13.1838 35.8388 11.8959 34.9775 11.8959 33.7224C11.8959 32.4673 13.1838 31.606 14.3404 32.09ZM31.9361 32.4181L32.3627 32.8693L32.8384 32.4591C33.3634 31.9998 33.4783 31.9669 33.7162 32.2048C33.9705 32.4591 33.913 32.6396 33.4291 33.099L32.9779 33.5255L33.3962 34.0095C33.8638 34.5509 33.8966 34.8052 33.5111 34.9775C33.2404 35.1005 33.0927 35.0267 32.699 34.5509C32.5267 34.3376 32.3545 34.1736 32.3134 34.1736C32.2724 34.1736 32.0509 34.3376 31.8377 34.5427C31.3865 34.9611 31.0912 35.0185 30.8943 34.7314C30.8205 34.633 30.763 34.5181 30.763 34.4771C30.763 34.4361 30.9681 34.19 31.2224 33.9193L31.69 33.4353L31.3045 33.0333C30.8943 32.5822 30.8041 32.2048 31.0748 32.049C31.3373 31.8931 31.5013 31.9587 31.9361 32.4181Z" fill="#2560A8"/>
<path id="Vector_6" d="M20.7047 21.6224C20.4094 21.7372 20.1797 22.1064 20.1797 22.4509C20.1797 23.0579 20.8441 23.4927 21.4266 23.2712C21.6891 23.1728 21.9844 22.738 21.9844 22.4591C21.9844 21.8356 21.2953 21.3845 20.7047 21.6224Z" fill="#2560A8"/>
<path id="Vector_7" d="M31.4212 22.3365C30.8552 22.6236 30.8224 23.5095 31.3638 23.8377C31.8314 24.1248 32.4384 23.9853 32.6353 23.5506C33.0127 22.722 32.2252 21.9263 31.4212 22.3365Z" fill="#2560A8"/>
<path id="Vector_8" d="M13.0348 33.099C12.8379 33.2958 12.7969 33.4107 12.7969 33.7224C12.7969 34.2638 13.1168 34.5837 13.6582 34.5837C14.1996 34.5837 14.5195 34.2638 14.5195 33.7224C14.5195 33.181 14.1996 32.8611 13.6582 32.8611C13.3465 32.8611 13.2316 32.9021 13.0348 33.099Z" fill="#2560A8"/>
<path id="Vector_9" d="M26.9485 17.3822C26.8336 17.8744 26.4071 20.9916 26.4481 21.0326C26.4891 21.0736 27.859 20.1713 29.2782 19.1705C29.7868 18.8177 29.795 18.8013 29.6063 18.7193C28.9008 18.4404 28.1625 18.0384 27.6211 17.6529C27.0223 17.2263 26.9895 17.2099 26.9485 17.3822Z" fill="#2560A8"/>
</g>
</g>
</svg>
