<svg width="42" height="43" viewBox="0 0 42 43" fill="none" xmlns="http://www.w3.org/2000/svg">
<g id="image 35 (traced)">
<g id="Black">
<path id="Vector" d="M9.45625 2.87191C8.63594 3.1262 7.89766 3.79066 7.4793 4.63558L7.25781 5.08675V21.1239V37.161L7.4957 37.6532C7.80742 38.2848 8.43086 38.9082 9.0625 39.22L9.55469 39.4578L16.3223 39.4743C22.7289 39.4907 23.0816 39.4825 22.8848 39.3512C21.1457 38.1535 20.0219 36.6032 19.382 34.5278C19.177 33.8469 19.1605 33.6993 19.1605 32.2801C19.1605 30.861 19.177 30.7133 19.382 30.0325C19.8742 28.441 20.5633 27.309 21.7199 26.1934C23.2949 24.6758 25.3211 23.8309 27.4211 23.8309H28.2168L28.2004 14.4547L28.1758 5.08675L27.9379 4.59456C27.6262 3.96292 27.0027 3.33949 26.3711 3.02777C25.8789 2.78988 25.8789 2.78988 24.107 2.76527L22.3352 2.74066L22.2941 3.9137C22.2531 5.26722 22.1383 5.63636 21.5969 6.12034C21.0309 6.63714 20.9488 6.64534 17.7168 6.64534C14.4848 6.64534 14.4027 6.63714 13.8367 6.12034C13.2953 5.63636 13.1805 5.26722 13.1395 3.9137L13.0984 2.74886L11.4496 2.75706C10.3258 2.75706 9.69414 2.79808 9.45625 2.87191ZM19.1113 10.2875C20.5715 10.8453 21.4574 12.084 21.5559 13.6836C21.6215 14.8649 21.2277 15.8985 20.391 16.686C20.227 16.8418 20.0957 16.9977 20.0957 17.0305C20.0957 17.0633 20.3254 17.2192 20.6125 17.3668C21.3836 17.7688 22.4336 18.8598 22.8684 19.7047C23.4918 20.9106 23.7461 22.4774 23.377 22.8465C23.1965 23.027 22.8848 23.0598 22.6387 22.9285C22.4582 22.8301 22.3105 22.4282 22.3105 22.0344C22.3105 21.1157 21.7609 19.918 21.0062 19.1633C19.0621 17.2274 15.6496 17.4489 14.0172 19.6145C13.5988 20.1641 13.2133 21.1321 13.1559 21.7965C13.0656 22.7563 12.9098 23.0106 12.434 23.0106C12.3191 23.0106 12.1469 22.9368 12.0566 22.8465C11.6875 22.4774 11.9418 20.9106 12.5652 19.7047C13 18.8598 14.05 17.7688 14.8293 17.3668C15.1082 17.2192 15.3379 17.0715 15.3379 17.0305C15.3379 16.9977 15.1902 16.8254 15.0016 16.6532C13.7793 15.4473 13.5004 13.536 14.3371 11.9856C14.7883 11.1407 15.7973 10.386 16.7816 10.1399C17.3066 10.0004 18.5945 10.0825 19.1113 10.2875Z" fill="#2678D1"/>
<path id="Vector_2" d="M16.757 11.4195C16.2895 11.5835 15.625 12.1906 15.3543 12.7074C15.1574 13.0765 15.1328 13.216 15.1328 13.905C15.1328 14.5941 15.1574 14.7335 15.3543 15.1027C15.6332 15.6359 16.2895 16.2347 16.7898 16.3988C17.0031 16.4726 17.4133 16.53 17.7168 16.53C18.0203 16.53 18.4305 16.4726 18.6437 16.3988C19.1441 16.2347 19.8004 15.6359 20.0793 15.1027C20.2762 14.7335 20.3008 14.5941 20.3008 13.905C20.3008 13.216 20.2762 13.0765 20.0793 12.7074C19.8004 12.1742 19.1441 11.5753 18.6437 11.4113C18.168 11.2472 17.2246 11.2472 16.757 11.4195Z" fill="#2678D1"/>
<path id="Vector_3" d="M14.4375 3.89722C14.4375 4.93901 14.4539 5.06206 14.6016 5.20972C14.7574 5.36558 14.8723 5.37378 17.7187 5.37378C20.5652 5.37378 20.6801 5.36558 20.8359 5.20972C20.9836 5.06206 21 4.93901 21 3.89722V2.74878H17.7187H14.4375V3.89722Z" fill="#2678D1"/>
<path id="Vector_4" d="M25.8002 25.2337C24.9143 25.447 23.7741 26.0212 23.0194 26.62C21.8135 27.5716 20.862 29.081 20.501 30.5985C20.2713 31.5583 20.3123 33.1989 20.5831 34.2079C21.2557 36.7345 23.1014 38.572 25.6362 39.2692C26.5795 39.5235 28.5483 39.5235 29.4916 39.2692C30.7795 38.9165 31.9116 38.2521 32.7811 37.3497C34.0772 36.0044 34.6842 34.5114 34.7581 32.4442C34.7909 31.5009 34.7745 31.2302 34.6268 30.5985C34.0034 27.9817 31.8788 25.8489 29.2866 25.2255C28.3432 25.004 26.7354 25.004 25.8002 25.2337ZM26.7108 30.5739L27.5639 31.4106L28.417 30.5739C29.1307 29.8685 29.303 29.7372 29.5245 29.7372C29.8526 29.7372 30.1069 29.9915 30.1069 30.3196C30.1069 30.5411 29.9756 30.7134 29.2702 31.4271L28.4334 32.2802L29.2702 33.1333C29.9756 33.847 30.1069 34.0192 30.1069 34.2407C30.1069 34.3884 30.0413 34.5606 29.9428 34.6591C29.8444 34.7575 29.6721 34.8231 29.5245 34.8231C29.303 34.8231 29.1307 34.6919 28.417 33.9864L27.5639 33.1497L26.7108 33.9864C25.9971 34.6919 25.8248 34.8231 25.6034 34.8231C25.2752 34.8231 25.0209 34.5688 25.0209 34.2407C25.0209 34.0192 25.1522 33.847 25.8577 33.1333L26.6944 32.2802L25.8577 31.4271C25.1522 30.7134 25.0209 30.5411 25.0209 30.3196C25.0209 30.172 25.0866 29.9997 25.185 29.9013C25.2834 29.8028 25.4557 29.7372 25.6034 29.7372C25.8248 29.7372 25.9971 29.8685 26.7108 30.5739Z" fill="#2678D1"/>
</g>
</g>
</svg>
