<svg width="42" height="43" viewBox="0 0 42 43" fill="none" xmlns="http://www.w3.org/2000/svg">
<g id="image 34 (traced)">
<g id="Black">
<path id="Vector" d="M17.6351 1.02648C16.8969 1.13312 16.4129 1.44484 15.4367 2.42101C15.0758 2.78195 14.641 3.13468 14.4851 3.20031C14.3211 3.26593 13.8289 3.36437 13.3941 3.40539C12.4918 3.50382 12.2129 3.57765 11.5484 3.90578C10.8594 4.25851 10.2769 5.07062 9.96523 6.15343C9.66171 7.21164 9.3664 7.57257 8.3082 8.19601C7.59452 8.61437 6.83984 9.45929 6.66757 10.0417C6.51991 10.5503 6.4953 11.428 6.59374 12.5601C6.65937 13.2737 6.65116 13.3312 6.45429 13.7495C6.33124 13.9956 6.08515 14.4304 5.90468 14.7257C5.01054 16.153 5.04335 17.4819 6.00312 18.9585C6.67577 19.9839 6.7332 20.2628 6.55273 21.5835C6.43788 22.3874 6.53632 23.2323 6.81523 23.8066C7.06132 24.3069 7.74218 24.9796 8.42304 25.3816C9.39101 25.9476 9.59609 26.2019 9.93241 27.2355C10.4738 28.9581 11.2941 29.7702 12.6969 29.9835C12.9512 30.0245 13.4351 30.0984 13.7633 30.1394C14.0914 30.1886 14.4769 30.287 14.6082 30.3609C14.7476 30.4265 15.1742 30.8038 15.568 31.1976C16.9871 32.6249 18.0535 32.8464 19.9074 32.1081C20.7687 31.7554 21.2117 31.7718 22.2699 32.1655C22.9918 32.4362 23.1805 32.4691 23.8695 32.4773C24.6078 32.4855 24.6734 32.4691 25.182 32.1984C25.5266 32.0179 25.9695 31.6652 26.4207 31.2058C27.2492 30.3691 27.4379 30.2624 28.2336 30.1394C28.5617 30.0984 29.0457 30.0245 29.3 29.9835C30.7027 29.7702 31.523 28.9581 32.0644 27.2355C32.4008 26.2019 32.6059 25.9476 33.5738 25.3816C34.2547 24.9796 34.9355 24.3069 35.1816 23.8066C35.4605 23.2323 35.559 22.3874 35.4441 21.5835C35.2637 20.2628 35.3211 19.9839 35.9937 18.9585C36.9453 17.4984 36.9863 16.1612 36.125 14.7667C35.3047 13.4542 35.2473 13.2163 35.4523 11.912C35.559 11.1902 35.4605 10.255 35.2144 9.7464C35.0012 9.29523 34.2301 8.51593 33.6805 8.19601C32.6305 7.57257 32.3351 7.21164 32.0316 6.15343C31.7199 5.07882 31.1457 4.25851 30.4484 3.90578C29.8496 3.60226 29.5133 3.51203 28.5617 3.40539C28.1351 3.35617 27.6676 3.26593 27.5035 3.20031C27.3394 3.13468 26.9293 2.79015 26.5766 2.43742C25.4609 1.29718 24.9195 1.01007 23.8695 1.01828C23.1805 1.01828 23.0246 1.05109 21.8598 1.46945C21.548 1.58429 21.1543 1.67453 20.9984 1.67453C20.8426 1.67453 20.457 1.58429 20.1371 1.46945C19.1281 1.10851 18.9148 1.05109 18.4555 1.01007C18.2094 0.993668 17.8402 1.00187 17.6351 1.02648ZM22.9344 6.48156C26.593 7.17882 29.6773 9.86125 30.8832 13.364C31.5887 15.4394 31.6051 17.9495 30.916 20.0085C29.6855 23.6999 26.4535 26.448 22.6391 27.0714C18.2422 27.7769 13.7797 25.521 11.7371 21.5425C10.9168 19.9429 10.5805 18.5402 10.5805 16.7273C10.5805 14.578 11.1547 12.6995 12.3605 10.8784C12.9266 10.0253 14.0832 8.84406 14.9281 8.25343C16.1832 7.36749 17.9305 6.64562 19.2758 6.44875C19.6121 6.39953 19.9812 6.3421 20.0961 6.3257C20.4898 6.25187 22.2781 6.35031 22.9344 6.48156Z" fill="#2560A8"/>
<path id="Vector_2" d="M19.6849 8.05691C15.5013 8.71316 12.4416 12.1175 12.2447 16.3339C12.0806 19.812 13.8853 22.962 16.9369 24.5452C20.8334 26.5632 25.624 25.4065 28.1669 21.83C30.5951 18.4257 30.2177 13.6022 27.2974 10.6327C26.0095 9.32019 24.4919 8.49987 22.7037 8.13073C22.1212 8.00769 20.2673 7.96667 19.6849 8.05691ZM25.0087 13.5038C25.1974 13.676 25.3451 13.9878 25.3451 14.1928C25.3451 14.3323 21.6619 19.8858 21.4486 20.0581C21.3748 20.1237 21.1615 20.1811 20.9892 20.1811C20.6857 20.1811 20.5955 20.1073 19.1517 18.6635C18.315 17.8268 17.6095 17.0639 17.5849 16.9573C17.4537 16.4569 17.8638 15.9565 18.397 15.9565C18.7087 15.9565 18.7826 16.0139 19.7669 16.9819C20.333 17.5479 20.8252 18.0073 20.858 18.0073C20.8908 18.0073 21.5798 17.0147 22.3837 15.8007C23.1959 14.5866 23.9423 13.5366 24.049 13.4628C24.3115 13.2741 24.7791 13.2987 25.0087 13.5038Z" fill="#2560A8"/>
<path id="Vector_3" d="M7.92854 30.7792C5.09846 35.6765 5.29534 35.2992 5.26252 35.898C5.21331 36.7183 5.54963 37.2925 6.27151 37.6207C6.71448 37.8257 7.08362 37.8093 8.79807 37.5386C9.60198 37.4156 10.2664 37.3335 10.2828 37.3582C10.2992 37.3828 10.5453 37.998 10.8242 38.7199C11.4313 40.2785 11.5133 40.4507 11.8004 40.7542C12.1367 41.1234 12.4485 41.2546 13.0391 41.2546C13.6707 41.2546 14.1465 41.0496 14.4582 40.6312C14.7289 40.2621 18.125 34.3558 18.125 34.2492C18.125 34.2082 17.9446 34.1671 17.7313 34.1671C16.8125 34.1671 15.6641 33.5765 14.5977 32.5593L13.8184 31.8046L13.2442 31.7472C11.3328 31.5585 9.85628 30.7546 9.1344 29.516C9.01956 29.3273 8.91292 29.1632 8.89651 29.1632C8.8801 29.1632 8.44534 29.8933 7.92854 30.7792Z" fill="#2560A8"/>
<path id="Vector_4" d="M32.866 29.516C32.1359 30.7546 30.6594 31.5585 28.748 31.7472L28.1738 31.8046L27.3945 32.5593C26.3445 33.5683 25.2453 34.1343 24.2609 34.1835C24.0395 34.1917 23.8672 34.2328 23.8672 34.2656C23.8672 34.364 27.4602 40.5738 27.6242 40.7625C27.9113 41.0742 28.3953 41.2546 28.9531 41.2546C29.5438 41.2546 29.8555 41.1234 30.1918 40.7542C30.4789 40.4507 30.5855 40.2292 31.1762 38.7035C31.4551 37.9898 31.693 37.3828 31.7094 37.3582C31.7176 37.3335 32.3902 37.4156 33.1941 37.5386C33.998 37.6699 34.8184 37.7683 35.0234 37.7765C35.7125 37.7765 36.4672 37.2515 36.6723 36.6445C36.7215 36.4886 36.7461 36.1359 36.7297 35.857C36.6969 35.3648 36.6395 35.2417 34.9496 32.3214C33.9898 30.648 33.1777 29.2535 33.1449 29.2207C33.1039 29.1796 32.9809 29.3191 32.866 29.516Z" fill="#2560A8"/>
</g>
</g>
</svg>
