<svg width="42" height="43" viewBox="0 0 42 43" fill="none" xmlns="http://www.w3.org/2000/svg">
<g id="image 37 (traced)">
<g id="Black">
<path id="Vector" d="M19.2773 2.83092C12.7887 3.45435 7.13672 7.44928 4.33125 13.3883C3.23203 15.718 2.625 18.4825 2.625 21.1403C2.625 26.0786 4.53633 30.6887 8.03086 34.1669C10.9676 37.0872 14.4867 38.818 18.6211 39.3758C19.6219 39.5153 20.9426 39.5317 21.1641 39.4169C21.4102 39.2856 21.5086 38.8754 21.3773 38.5555C21.2379 38.2192 20.9016 38.1044 20.0648 38.1044C18.8836 38.1044 16.677 37.6532 15.2004 37.1118C9.61406 35.0692 5.47969 30.2704 4.31484 24.4708C3.85547 22.2067 3.85547 20.0247 4.31484 17.7606C5.20898 13.3309 7.85039 9.41803 11.6402 6.91607C15.4383 4.40592 20.1551 3.51998 24.5684 4.47974C29.1949 5.49693 33.1324 8.31881 35.5852 12.404C36.7992 14.4137 37.5949 16.7516 37.8984 19.1551C38.0051 20.0493 38.0051 22.1985 37.8902 23.0926C37.6605 24.9794 37.1273 26.784 36.2906 28.5067C35.8066 29.5157 34.6336 31.4188 34.5516 31.345C34.5352 31.3286 34.5598 30.8446 34.609 30.2704C34.732 28.843 34.7238 28.6954 34.5352 28.5067C34.1824 28.154 33.559 28.236 33.3949 28.6544C33.3539 28.7774 33.2391 29.8438 33.1406 31.0251C32.9602 33.404 32.9684 33.5434 33.4277 33.9044C33.8297 34.2243 34.043 34.1997 36.3398 33.6008C38.7023 32.9774 38.8008 32.9282 38.8008 32.3868C38.8008 32.0586 38.4973 31.7059 38.2102 31.7059C38.1035 31.7059 37.4801 31.8454 36.8238 32.0176L35.6262 32.3211L36.0117 31.7879C38.6203 28.1376 39.7852 23.511 39.252 18.9501C38.3824 11.5016 32.9109 5.22623 25.6758 3.37232C25.0605 3.21646 24.1418 3.02779 23.625 2.95396C22.4766 2.7899 20.3355 2.73248 19.2773 2.83092Z" fill="#2560A8"/>
<path id="Vector_2" d="M19.1664 9.03237C18.2395 9.17183 17.3863 9.40151 16.443 9.76245C15.3027 10.2054 15.3437 10.1152 15.918 11.0996C16.2051 11.5999 16.4102 12.0429 16.4102 12.1824C16.4102 12.4531 16.082 12.7566 15.7867 12.7566C15.516 12.7566 15.3602 12.5843 14.8516 11.6656C14.6055 11.2308 14.3676 10.8699 14.3348 10.8699C14.1789 10.8699 12.9566 11.8542 12.3414 12.4613C11.7262 13.0847 10.75 14.307 10.75 14.4546C10.75 14.4874 11.1109 14.7253 11.5539 14.9714C12.4645 15.4882 12.6367 15.6359 12.6367 15.9066C12.6367 16.1937 12.3332 16.53 12.0789 16.53C11.9559 16.53 11.4719 16.3085 10.9961 16.0378C10.2168 15.5949 10.1266 15.5621 10.0363 15.6851C9.88047 15.882 9.38828 17.2109 9.19141 17.9246C9.04375 18.4906 8.78125 19.9917 8.78125 20.3199C8.78125 20.4347 8.9125 20.4593 9.79844 20.4839C10.75 20.5085 10.832 20.525 11.0289 20.7054C11.3078 20.9679 11.3078 21.2796 11.0289 21.5421C10.832 21.7226 10.75 21.739 9.79844 21.7636C8.9125 21.7882 8.78125 21.8128 8.78125 21.9277C8.78125 22.2558 9.04375 23.757 9.19141 24.323C9.38828 25.0367 9.88047 26.3656 10.0363 26.5625C10.1266 26.6855 10.2168 26.6527 10.9961 26.2097C11.4719 25.939 11.9559 25.7175 12.0789 25.7175C12.3332 25.7175 12.6367 26.0539 12.6367 26.341C12.6367 26.6117 12.4645 26.7593 11.5539 27.2761C11.1109 27.5222 10.75 27.7601 10.75 27.7929C10.75 27.9406 11.7262 29.171 12.3414 29.7781C12.9648 30.4015 14.1871 31.3777 14.3348 31.3777C14.3676 31.3777 14.6055 31.0167 14.8516 30.582C15.3602 29.6632 15.516 29.491 15.7867 29.491C16.082 29.491 16.4102 29.7945 16.4102 30.0652C16.4102 30.2046 16.2051 30.6476 15.918 31.148C15.4668 31.9109 15.434 32.0011 15.5652 32.0914C15.7703 32.2472 17.0992 32.7394 17.8047 32.9363C18.3707 33.0839 19.8719 33.3464 20.1918 33.3464C20.3148 33.3464 20.3312 33.207 20.3559 32.3292C20.3887 31.3859 20.4051 31.2957 20.5855 31.0988C20.848 30.8199 21.1598 30.8199 21.4223 31.0988C21.6027 31.2957 21.6191 31.3859 21.652 32.3292C21.6766 33.207 21.693 33.3464 21.816 33.3464C22.1359 33.3464 23.6371 33.0839 24.2031 32.9363C24.9168 32.7394 26.2457 32.2472 26.4426 32.0914C26.5656 32.0011 26.5328 31.9109 26.0898 31.1316C25.8191 30.6558 25.5977 30.1718 25.5977 30.0488C25.5977 29.7945 25.934 29.491 26.2211 29.491C26.4918 29.491 26.6477 29.6632 27.1562 30.582C27.4023 31.0167 27.6402 31.3777 27.673 31.3777C27.8289 31.3777 29.0512 30.3933 29.6582 29.7863C30.2816 29.1628 31.2578 27.9406 31.2578 27.7929C31.2578 27.7601 30.8969 27.5222 30.4621 27.2761C29.5434 26.7675 29.3711 26.6117 29.3711 26.341C29.3711 26.0539 29.6746 25.7175 29.9289 25.7175C30.052 25.7175 30.5359 25.939 31.0117 26.2097C31.791 26.6527 31.8812 26.6855 31.9715 26.5625C32.1273 26.3656 32.6195 25.0367 32.8164 24.323C32.9641 23.757 33.2266 22.2558 33.2266 21.9277C33.2266 21.8128 33.0953 21.7882 32.2094 21.7636C31.2578 21.739 31.1758 21.7226 30.9789 21.5421C30.8559 21.4273 30.7656 21.255 30.7656 21.1238C30.7656 20.9925 30.8559 20.8203 30.9789 20.7054C31.1758 20.525 31.2578 20.5085 32.2094 20.4839C33.0953 20.4593 33.2266 20.4347 33.2266 20.3199C33.2266 19.9917 32.9641 18.4906 32.8164 17.9246C32.6195 17.2109 32.1273 15.882 31.9715 15.6851C31.8812 15.5621 31.791 15.5949 31.0117 16.0378C30.5359 16.3085 30.052 16.53 29.9289 16.53C29.6746 16.53 29.3711 16.1937 29.3711 15.9066C29.3711 15.6359 29.5434 15.48 30.4621 14.9714C30.8969 14.7253 31.2578 14.4874 31.2578 14.4546C31.2578 14.2988 30.2734 13.0765 29.6664 12.4613C29.0512 11.8542 27.8289 10.8699 27.673 10.8699C27.6402 10.8699 27.4023 11.2308 27.1562 11.6656C26.6477 12.5843 26.4918 12.7566 26.2211 12.7566C25.934 12.7566 25.5977 12.4531 25.5977 12.1988C25.5977 12.0757 25.7699 11.682 25.975 11.321C26.1801 10.9601 26.4016 10.5582 26.4672 10.4351L26.5902 10.2054L26.0734 9.97573C24.9496 9.46714 23.5059 9.08159 22.1852 8.94214L21.6766 8.88472L21.652 9.91011C21.6191 10.8617 21.6027 10.9519 21.4223 11.1488C21.3074 11.2718 21.1352 11.3621 21.0039 11.3621C20.8727 11.3621 20.7004 11.2718 20.5855 11.1488C20.4051 10.9519 20.3887 10.8617 20.3559 9.91831L20.3312 8.90112L20.1098 8.90932C19.9949 8.91753 19.5684 8.96675 19.1664 9.03237ZM21.332 13.1667C21.6273 13.3226 21.6602 13.7574 21.6602 17.457V21.05L23.0957 23.5027C23.8832 24.8562 24.5312 26.0292 24.5312 26.1195C24.5312 26.5378 24.1293 26.8496 23.7684 26.7101C23.5059 26.6117 23.4812 26.5707 21.8734 23.8226C20.725 21.8457 20.4953 21.3945 20.4297 20.9925C20.323 20.3281 20.323 13.9542 20.4297 13.5605C20.5527 13.1257 20.9383 12.9535 21.332 13.1667Z" fill="#2560A8"/>
</g>
</g>
</svg>
