<svg width="29" height="31" viewBox="0 0 29 31" fill="none" xmlns="http://www.w3.org/2000/svg">
<g id="Black">
<path id="Vector" d="M14.7812 0.343765C14.55 0.531265 14.3 0.693765 14.225 0.693765C14.1562 0.700015 13.8938 0.706265 13.6562 0.712515C13.1 0.718765 12.9625 0.806265 12.7 1.30002C12.45 1.76252 12.3 1.88752 11.7812 2.06252C11.3062 2.21877 11.15 2.39377 11.0938 2.80002C11.0063 3.43752 10.9563 3.53751 10.5063 3.93126C10.2688 4.14377 10.0563 4.38126 10.0375 4.46251C10.0188 4.55002 10.0438 4.83751 10.0938 5.10627L10.1875 5.59377L9.90625 6.13752C9.75 6.43752 9.625 6.73127 9.625 6.79377C9.625 6.85627 9.69375 7.03127 9.78125 7.18752C10.1875 7.90627 10.2 7.93752 10.0938 8.49377C10.0062 8.95626 10.0062 9.01876 10.0938 9.20626C10.15 9.31252 10.3625 9.54377 10.5625 9.70627C10.9563 10.025 11.0063 10.125 11.0938 10.775C11.15 11.1813 11.35 11.3813 11.8875 11.5563C12.3438 11.7063 12.475 11.8313 12.7687 12.375C12.9813 12.7688 13.2 12.875 13.8125 12.875C14.3063 12.875 14.4188 12.9188 14.7688 13.2313C14.9 13.3438 15.1 13.4875 15.2188 13.5438C15.425 13.6438 15.4563 13.6375 15.925 13.4813C16.5375 13.275 16.5938 13.275 17.175 13.475C17.4437 13.5688 17.7063 13.6188 17.7875 13.6C17.8688 13.575 18.0875 13.4375 18.2688 13.2875C18.7438 12.9063 18.8125 12.875 19.3125 12.875C19.925 12.875 20.1438 12.7688 20.3562 12.375C20.65 11.8313 20.7812 11.7063 21.2375 11.5563C21.7875 11.375 21.975 11.1875 22.025 10.7438C22.1 10.1625 22.1687 10.0313 22.625 9.62502C23.0563 9.25002 23.0625 9.23127 23.0625 8.93752C23.0625 8.76876 23.0312 8.48751 22.9938 8.31252C22.925 8.00002 22.9313 7.98127 23.2188 7.40627C23.55 6.75002 23.55 6.77502 23.1687 6.07502C22.925 5.61877 22.925 5.61251 22.9938 5.26877C23.0312 5.07502 23.0625 4.78127 23.0625 4.61876C23.0625 4.33127 23.05 4.31252 22.625 3.93752C22.1687 3.53127 22.15 3.50002 22 2.74376C21.9625 2.55002 21.8813 2.34377 21.825 2.29377C21.7688 2.23752 21.525 2.12502 21.2937 2.04377C20.775 1.85627 20.7 1.78751 20.375 1.24376C20.15 0.868765 20.0938 0.806265 19.8625 0.743765C19.7188 0.706265 19.4875 0.693765 19.35 0.712515C18.9812 0.768765 18.7312 0.675015 18.3063 0.318765C17.9812 0.0437651 17.8875 1.52588e-05 17.6562 1.52588e-05C17.5062 1.52588e-05 17.2562 0.0562649 17.0938 0.125015C16.9313 0.193765 16.6937 0.250015 16.5625 0.250015C16.4313 0.250015 16.1937 0.193765 16.0312 0.125015C15.8688 0.0562649 15.6188 1.52588e-05 15.4688 1.52588e-05C15.2313 1.52588e-05 15.1438 0.0437651 14.7812 0.343765ZM17.775 1.78127C18.7188 2.03751 19.3688 2.39377 20.0688 3.05002C21.15 4.06252 21.6938 5.31252 21.6938 6.78752C21.6938 8.80001 20.5938 10.5438 18.7812 11.4125C18.0688 11.7563 17.625 11.875 16.8625 11.9188C13.2313 12.1375 10.5063 8.56877 11.6813 5.14377C12.1938 3.66251 13.4375 2.41251 14.9062 1.90627C15.7688 1.61252 16.975 1.56252 17.775 1.78127Z" fill="#2560A8"/>
<path id="Vector_2" d="M15.6561 2.66231C14.2561 2.95606 13.0124 4.05606 12.5624 5.39981C11.9561 7.22481 12.6311 9.24356 14.1999 10.2873C15.4499 11.1248 17.1061 11.2248 18.4624 10.5623C19.5436 10.0311 20.3874 8.96231 20.6624 7.77481C20.7811 7.24356 20.7811 6.31231 20.6561 5.77481C20.1499 3.58731 17.9061 2.19356 15.6561 2.66231ZM16.9624 4.77481L17.3311 5.67481L18.1186 5.71856C18.5499 5.73731 18.9999 5.78106 19.1124 5.79981L19.3249 5.84356L18.6186 6.43731C18.2311 6.76231 17.8936 7.04981 17.8561 7.06856C17.8249 7.09356 17.8999 7.51856 18.0436 8.10606L18.2874 9.10606L17.4561 8.58106C16.9936 8.29356 16.5936 8.06231 16.5561 8.06231C16.5249 8.06231 16.1436 8.28731 15.7061 8.56231C15.2624 8.83106 14.8999 9.03106 14.8874 8.99981C14.8686 8.94981 15.1811 7.57481 15.2874 7.23731C15.3124 7.16231 15.1124 6.95606 14.5624 6.48731L13.7999 5.84356L14.0124 5.79981C14.1249 5.78106 14.5749 5.73731 15.0061 5.71856L15.7936 5.67481L16.1561 4.77481C16.3561 4.28106 16.5374 3.87481 16.5561 3.87481C16.5811 3.87481 16.7624 4.28106 16.9624 4.77481Z" fill="#2560A8"/>
<path id="Vector_3" d="M21.5187 12.4188C21.4375 12.4375 21.3125 12.5625 21.2125 12.7375C20.7563 13.5188 20.4062 13.7438 19.5688 13.8C19.0563 13.8313 19.0188 13.8438 18.7562 14.0688C18.6063 14.2063 18.4563 14.3125 18.4313 14.3125C18.4 14.3125 18.375 14.35 18.375 14.3875C18.375 14.475 19.3063 16.6875 19.375 16.7688C19.4 16.7938 19.7063 16.35 20.0562 15.7813C20.5438 15 20.725 14.7563 20.8063 14.7813C20.9625 14.8313 23.0312 15.2438 23.0438 15.225C23.0563 15.2188 22.7875 14.575 22.45 13.7938C22.025 12.8 21.8188 12.375 21.75 12.3813C21.7 12.3875 21.5938 12.4063 21.5187 12.4188Z" fill="#2560A8"/>
<path id="Vector_4" d="M10.8501 14.1312C10.4189 15.0687 10.0689 15.8437 10.0814 15.8499C10.0939 15.8624 10.5814 15.7874 11.1626 15.6874C11.7439 15.5874 12.2751 15.4999 12.3439 15.4999C12.4376 15.4999 12.6001 15.7312 13.0376 16.4812C13.3501 17.0187 13.6314 17.4687 13.6626 17.4812C13.7126 17.4937 15.0626 14.6687 15.0626 14.5499C15.0626 14.5249 14.9439 14.4437 14.8001 14.3687C14.6501 14.2937 14.4314 14.1437 14.3064 14.0312C14.1001 13.8499 14.0376 13.8312 13.5501 13.7999C12.7189 13.7437 12.2501 13.4312 11.8501 12.6374C11.7939 12.5312 11.7251 12.4374 11.6939 12.4374C11.6689 12.4374 11.2876 13.1999 10.8501 14.1312Z" fill="#2560A8"/>
<path id="Vector_5" d="M9.59378 18.7125C9.45628 18.7563 9.13753 18.8938 8.88128 19.025C8.33753 19.3 4.31878 21.6125 4.20003 21.7188C4.13753 21.775 4.40003 22.275 5.46878 24.1625C6.20628 25.4625 6.81878 26.5563 6.83128 26.5938C6.84378 26.625 7.13753 26.4875 7.48128 26.2938C7.83128 26.1 8.16253 25.9375 8.23128 25.9375C8.29378 25.9375 10.0313 26.3938 12.0938 26.9438C16.0813 28.0188 16.4688 28.0938 17.1938 27.9438C17.3813 27.9063 17.7063 27.7938 17.9125 27.6938C18.35 27.4875 28.2125 21.425 28.4313 21.2313C28.8938 20.8125 28.8438 19.7813 28.3438 19.3875C27.8375 18.9875 26.875 19.0875 25.75 19.6563C25.525 19.7688 24.0063 20.6375 22.3813 21.5875C20.75 22.5375 19.2625 23.3688 19.0813 23.4375C17.9875 23.8438 17.1 23.7563 13.9688 22.9063C12.375 22.475 12.25 22.4188 12.25 22.0688C12.25 21.8688 12.4813 21.625 12.6625 21.625C12.725 21.625 13.4375 21.8063 14.2375 22.0313C16.4875 22.6563 16.9438 22.7063 17.3625 22.3938C17.7188 22.1313 17.8688 21.4688 17.6625 21.0688C17.5438 20.85 17.1688 20.5125 16.9813 20.4688C16.9063 20.45 16.5938 20.3813 16.2813 20.3188C15.4188 20.1313 14.3313 19.8 12.8875 19.2875C12.1625 19.0313 11.4 18.775 11.2 18.7188C10.7563 18.6063 9.94378 18.6 9.59378 18.7125Z" fill="#2560A8"/>
<path id="Vector_6" d="M1.8375 20.6374C1.7 20.7187 1.3375 20.9187 1.025 21.0874C0.34375 21.4624 0.25 21.5437 0.25 21.7249C0.25 21.8437 4.675 29.7812 4.8875 30.0499C5.025 30.2124 5.325 30.1187 6.15625 29.6499C6.79375 29.2937 7.0125 29.1374 7.0375 29.0249C7.06875 28.9124 6.98125 28.7062 6.7125 28.2374C3.7 22.8874 2.4125 20.6437 2.33125 20.5749C2.1875 20.4687 2.13125 20.4812 1.8375 20.6374ZM2.11875 21.7812C2.3125 21.8749 2.375 21.9874 2.375 22.2187C2.375 22.4499 2.3125 22.5624 2.1125 22.6624C1.575 22.9437 1.10625 22.2374 1.56875 21.8499C1.7875 21.6624 1.875 21.6499 2.11875 21.7812Z" fill="#2560A8"/>
</g>
</svg>
